# xmcd
#
# Track frame offsets: 
#        150
#        17910
#        33709
#        51657
#        68234
#        86950
#        102484
#        120934
#        136638
#        154296
#        172129
#        187486
#        203335
#        220025
#        236744
#
# Disc length: 3380 seconds
#
# Revision: 0
# Processed by: cddbd v1.5.2PL0 Copyright (c) Steve Scherf et al.
# Submitted via: ExactAudioCopyFreeDBPlugin 1.0
#
DISCID=e10d320f
DTITLE=Сергей Лазарев - ЛАЗАРЕВ
DYEAR=2012
DGENRE=Pop
TTITLE0=Make you say
TTITLE1=Take it off
TTITLE2=Stumblin
TTITLE3=Under the moon
TTITLE4=Нереальная любовь
TTITLE5=I need Love (Feat. DJ SAN)
TTITLE6=Moscow to California (DJ M.E.G. feat. Сергей Лазарев и Тимати)
TTITLE7=7 Wonders
TTITLE8=Storm
TTITLE9=Keep your Mouth Shut
TTITLE10=Warrior
TTITLE11=Слезы в моем сердце (ChinKong production)
TTITLE12=Отпускаю
TTITLE13=Desire (Feat. Gilles Luka)
TTITLE14=Take it off (Vengerov remix)
EXTD=
EXTT0=
EXTT1=
EXTT2=
EXTT3=
EXTT4=
EXTT5=
EXTT6=
EXTT7=
EXTT8=
EXTT9=
EXTT10=
EXTT11=
EXTT12=
EXTT13=
EXTT14=
PLAYORDER=
